{"title":"Samba Traore (1992) - Idrissa Ouedraogo","uid":14513330,"size":1188907492,"categoryP":"video","categoryS":"movies","magnet":"?xt=urn:btih:21df4d78569400bc102ea3ae86a575ab6edd8242&amp;dn=Samba+Traore+%281992%29+-+Idrissa+Ouedraogo&amp;tr=udp%3A%2F%2Ftracker.leechers-paradise.org%3A6969&amp;tr=udp%3A%2F%2Fzer0day.ch%3A1337&amp;tr=udp%3A%2F%2Fopen.demonii.com%3A1337&amp;tr=udp%3A%2F%2Ftracker.coppersurfer.tk%3A6969&amp;tr=udp%3A%2F%2Fexodus.desync.com%3A6969","seeders":1,"leechers":0,"uploader":"Aaaameida","files":2,"time":1462311802,"description":"Samba Traore returns to his village flush with funds. Soon enough he manages to charm the beautiful Saratou into marrying him and, along with another friend, builds the first bar their village has ever seen. But his conscience keeps nagging him and the police are on the lookout for the &quot;gas station murderer.&quot;\r\n\r\nLanguage:  French, More\r\n\r\nSubtitles: English, French, Spanish, Italian (sub/idx) and Portuguese (srt)\r\n \nhttp://www.imdb.com/title/tt0108031\r\n\r\nGeneral\r\nUnique ID : 255600856760278589512165820135329471989 (0xC04AEF33D3ADEDB05ECAEA9C6B0B9DF5)\r\nComplete name : Samba Traore.mkv\r\nFormat : Matroska\r\nFormat version : Version 4 / Version 2\r\nFile size : 1.11 GiB\r\nDuration : 1h 21mn\r\nOverall bit rate : 1 937 Kbps\r\nEncoded date : UTC 2013-02-28 13:33:03\r\nWriting application : mkvmerge v6.0.0 ('Coming Up For Air') built on Jan 20 2013 10:54:47\r\nWriting library : libebml v1.3.0 + libmatroska v1.4.0\r\nAttachment : Yes\r\n\r\nVideo\r\nID : 1\r\nFormat : AVC\r\nFormat/Info : Advanced Video Codec\r\nFormat profile :   \r\nFormat settings, CABAC : Yes\r\nFormat settings, ReFrames : 8 frames\r\nCodec ID : V_MPEG4/ISO/AVC\r\nDuration : 1h 21mn\r\nBit rate : 1 700 Kbps\r\nWidth : 700 pixels\r\nHeight : 452 pixels\r\nDisplay aspect ratio : 1.690\r\nOriginal display aspect ratio : 2.2:1\r\nFrame rate mode : Constant\r\nFrame rate : 25.000 fps\r\nColor space : YUV\r\nChroma subsampling : 4:2:0\r\nBit depth : 8 bits\r\nScan type : Progressive\r\nBits/(Pixel*Frame) : 0.215\r\nStream size : 980 MiB (86%)\r\nWriting library : x264 core 129 r2245 bc13772\r\nEncoding settings : cabac=1 / ref=8 / deblock=1:-3:-3 / analyse=0x3:0x133 / me=umh / subme=9 / psy=1 / psy_rd=1.00:0.15 / mixed_ref=1 / me_range=16 / chroma_me=1 / trellis=2 / 8x8dct=1 / cqm=0 / deadzone=21,11 / fast_pskip=1 / chroma_qp_offset=-3 / threads=1 / lookahead_threads=1 / sliced_threads=0 / nr=0 / decimate=0 / interlaced=0 / bluray_compat=0 / constrained_intra=0 / bframes=3 / b_pyramid=2 / b_adapt=2 / b_bias=0 / direct=3 / weightb=1 / open_gop=0 / weightp=2 / keyint=250 / keyint_min=25 / scenecut=40 / intra_refresh=0 / rc_lookahead=60 / rc=2pass / mbtree=1 / bitrate=1700 / ratetol=1.0 / qcomp=0.60 / qpmin=0 / qpmax=69 / qpstep=4 / cplxblur=20.0 / qblur=0.5 / ip_ratio=1.40 / aq=1:1.00\r\nLanguage : English\r\nDefault : Yes\r\nForced : No\r\n\r\nAudio\r\nID : 2\r\nFormat : AC-3\r\nFormat/Info : Audio Coding 3\r\nMode extension : CM (complete main)\r\nFormat settings, Endianness : Big\r\nCodec ID : A_AC3\r\nDuration : 1h 21mn\r\nBit rate mode : Constant\r\nBit rate : 224 Kbps\r\nChannel(s) : 2 channels\r\nChannel positions : Front: L R\r\nSampling rate : 48.0 KHz\r\nBit depth : 16 bits\r\nCompression mode : Lossy\r\nStream size : 131 MiB (12%)\r\nDefault : Yes\r\nForced : No\r\n\r\nText #1\r\nID : 3\r\nFormat : VobSub\r\nMuxing mode : zlib\r\nCodec ID : S_VOBSUB\r\nCodec ID/Info : The same subtitle format used on DVDs\r\nLanguage : French\r\nDefault : No\r\nForced : No\r\n\r\nText #2\r\nID : 4\r\nFormat : VobSub\r\nMuxing mode : zlib\r\nCodec ID : S_VOBSUB\r\nCodec ID/Info : The same subtitle format used on DVDs\r\nLanguage : English\r\nDefault : Yes\r\nForced : No\r\n\r\nText #3\r\nID : 5\r\nFormat : VobSub\r\nMuxing mode : zlib\r\nCodec ID : S_VOBSUB\r\nCodec ID/Info : The same subtitle format used on DVDs\r\nLanguage : Spanish\r\nDefault : No\r\nForced : No\r\n\r\nText #4\r\nID : 6\r\nFormat : VobSub\r\nMuxing mode : zlib\r\nCodec ID : S_VOBSUB\r\nCodec ID/Info : The same subtitle format used on DVDs\r\nLanguage : Italian\r\nDefault : No\r\nForced : No\r\n\r\n\r\nUpped KG: damascus","torrent":{"xt":"urn:btih:21df4d78569400bc102ea3ae86a575ab6edd8242","amp;dn":"Samba+Traore+%281992%29+-+Idrissa+Ouedraogo","amp;tr":["udp%3A%2F%2Ftracker.leechers-paradise.org%3A6969","udp%3A%2F%2Fzer0day.ch%3A1337","udp%3A%2F%2Fopen.demonii.com%3A1337","udp%3A%2F%2Ftracker.coppersurfer.tk%3A6969","udp%3A%2F%2Fexodus.desync.com%3A6969"],"infoHash":"21df4d78569400bc102ea3ae86a575ab6edd8242","infoHashBuffer":{"type":"Buffer","data":[33,223,77,120,86,148,0,188,16,46,163,174,134,165,117,171,110,221,130,66]},"announce":[],"urlList":[]}}